<svg width="22" height="281" viewBox="0 0 22 281" fill="none" xmlns="http://www.w3.org/2000/svg">
<path d="M-256 219H-257V220V278C-257 279.105 -256.105 280 -255 280H20H21V279V220V219H20H-256Z" fill="white" stroke="#E5E5E5" stroke-width="2"/>
<rect x="-257" y="158" width="278" height="61" fill="white" stroke="#E5E5E5" stroke-width="2"/>
<path d="M21 98V97H20H-255C-256.105 97 -257 97.8954 -257 99V157V158H-256H20H21V157V98Z" fill="white" stroke="#E5E5E5" stroke-width="2"/>
<path d="M-10.3556 249.506L0.553093 238.587C0.694664 238.447 0.807066 238.28 0.883781 238.096C0.960497 237.913 0.999998 237.716 0.999998 237.517C0.999998 237.318 0.960497 237.121 0.883781 236.937C0.807066 236.753 0.694664 236.587 0.553093 236.447C0.267986 236.166 -0.116259 236.008 -0.516582 236.008C-0.916908 236.008 -1.30115 236.166 -1.58626 236.447L-12.495 247.367L-23.4137 236.447C-23.5536 236.305 -23.7202 236.193 -23.9038 236.116C-24.0874 236.04 -24.2844 236 -24.4834 236C-24.6824 236 -24.8794 236.04 -25.0631 236.116C-25.2467 236.193 -25.4132 236.305 -25.5531 236.447C-25.8341 236.732 -25.9917 237.116 -25.9917 237.517C-25.9917 237.917 -25.8341 238.301 -25.5531 238.587L-14.6343 249.506L-25.5531 260.416C-25.6947 260.556 -25.8071 260.723 -25.8838 260.906C-25.9605 261.09 -26 261.287 -26 261.486C-26 261.685 -25.9605 261.882 -25.8838 262.066C-25.8071 262.249 -25.6947 262.416 -25.5531 262.556C-25.2693 262.839 -24.8845 262.999 -24.4834 262.999C-24.0823 262.999 -23.6976 262.839 -23.4137 262.556L-12.495 251.646L-1.58626 262.556C-1.30204 262.839 -0.917685 262.999 -0.516582 263C-0.217396 263 0.0750027 262.911 0.323683 262.744C0.572365 262.578 0.766174 262.342 0.880632 262.065C0.99509 261.789 1.02506 261.485 0.966768 261.191C0.908472 260.898 0.764519 260.628 0.553093 260.416L-10.3556 249.506Z" fill="#F25B26"/>
<path d="M-10.3556 188.506L0.553093 177.587C0.694664 177.447 0.807066 177.28 0.883781 177.096C0.960497 176.913 0.999998 176.716 0.999998 176.517C0.999998 176.318 0.960497 176.121 0.883781 175.937C0.807066 175.753 0.694664 175.587 0.553093 175.447C0.267986 175.166 -0.116259 175.008 -0.516582 175.008C-0.916908 175.008 -1.30115 175.166 -1.58626 175.447L-12.495 186.367L-23.4137 175.447C-23.5536 175.305 -23.7202 175.193 -23.9038 175.116C-24.0874 175.04 -24.2844 175 -24.4834 175C-24.6824 175 -24.8794 175.04 -25.0631 175.116C-25.2467 175.193 -25.4132 175.305 -25.5531 175.447C-25.8341 175.732 -25.9917 176.116 -25.9917 176.517C-25.9917 176.917 -25.8341 177.301 -25.5531 177.587L-14.6343 188.506L-25.5531 199.416C-25.6947 199.556 -25.8071 199.723 -25.8838 199.906C-25.9605 200.09 -26 200.287 -26 200.486C-26 200.685 -25.9605 200.882 -25.8838 201.066C-25.8071 201.249 -25.6947 201.416 -25.5531 201.556C-25.2693 201.839 -24.8845 201.999 -24.4834 201.999C-24.0823 201.999 -23.6976 201.839 -23.4137 201.556L-12.495 190.646L-1.58626 201.556C-1.30204 201.839 -0.917685 201.999 -0.516582 202C-0.217396 202 0.0750027 201.911 0.323683 201.744C0.572365 201.578 0.766174 201.342 0.880632 201.065C0.99509 200.789 1.02506 200.485 0.966768 200.191C0.908472 199.898 0.764519 199.628 0.553093 199.416L-10.3556 188.506Z" fill="#F25B26"/>
<path d="M2.55591 117.43C2.41342 117.293 2.24389 117.185 2.05711 117.112C1.87033 117.038 1.66999 117 1.46764 117C1.2653 117 1.06496 117.038 0.878176 117.112C0.691393 117.185 0.521866 117.293 0.379374 117.43L-17.6256 134.496L-25.4223 127.11C-25.7129 126.853 -26.0972 126.714 -26.4943 126.72C-26.8914 126.727 -27.2702 126.879 -27.5511 127.145C-27.8319 127.411 -27.9928 127.77 -27.9998 128.146C-28.0068 128.523 -27.8594 128.887 -27.5886 129.162L-18.7088 137.574C-18.5669 137.709 -18.3981 137.817 -18.2122 137.89C-18.0263 137.963 -17.8269 138 -17.6256 138C-17.2194 137.999 -16.8302 137.846 -16.5424 137.574L2.55591 119.482C2.84048 119.208 3 118.84 3 118.456C3 118.072 2.84048 117.703 2.55591 117.43Z" fill="#3DC644"/>
<path d="M21 2V1H20H-255C-256.105 1 -257 1.89543 -257 3V96V97H-256H20H21V96V2Z" fill="#283645" stroke="#283645" stroke-width="2"/>
</svg>
